<svg width="80" height="80" viewBox="0 0 80 80" fill="none" xmlns="http://www.w3.org/2000/svg">
<path fill-rule="evenodd" clip-rule="evenodd" d="M6.79688 39.3487C6.96459 38.1963 7.09861 37.0377 7.30568 35.8922C8.2078 30.9004 10.3122 26.4559 13.5487 22.5657C17.9438 17.2827 23.5104 13.8903 30.2481 12.4809C31.5595 12.2067 32.903 12.0732 34.2378 11.9312C35.181 11.8309 35.9689 12.4732 36.1536 13.4203C36.211 13.7149 36.2071 14.0241 36.2071 14.3266C36.2105 22.8744 36.2213 31.4223 36.1969 39.9702C36.1943 40.8916 36.4927 41.5681 37.1373 42.2096C43.2108 48.2554 49.2687 54.3168 55.3119 60.393C55.6753 60.7587 55.9869 61.2539 56.1273 61.7447C56.3192 62.4161 56.001 63.0034 55.4629 63.4651C51.4271 66.9308 46.7982 69.2027 41.5751 70.1686C25.7416 73.0967 10.5571 62.8143 7.37205 47.0361C7.11147 45.7461 6.98543 44.429 6.79688 43.1246C6.79688 41.866 6.79688 40.6073 6.79688 39.3487Z" fill="#CBD0D9"/>
<path fill-rule="evenodd" clip-rule="evenodd" d="M39.7304 24.279C39.7304 20.1134 39.7289 15.9478 39.7312 11.7821C39.7322 10.2104 40.4798 9.5051 42.0414 9.65558C51.7021 10.5865 59.2125 15.11 64.5293 23.2236C67.2084 27.3123 68.6157 31.8505 69.0265 36.7073C69.1461 38.1205 68.4022 38.9455 66.9882 38.9465C58.5918 38.9516 50.1957 38.9514 41.7991 38.9468C40.4335 38.946 39.7333 38.2265 39.7317 36.8405C39.7276 32.6538 39.7304 28.4665 39.7304 24.279Z" fill="#E4E7EC"/>
<path fill-rule="evenodd" clip-rule="evenodd" d="M60.0955 42.8138C63.7616 42.8138 67.4277 42.8128 71.0936 42.8143C72.9495 42.8151 73.5442 43.5456 73.3768 45.3957C73.0444 49.0641 72.0777 52.545 70.4554 55.8468C69.3305 58.1357 67.9044 60.2272 66.2416 62.1562C65.5389 62.9716 64.458 63.0169 63.6338 62.3144C63.5515 62.2442 63.4725 62.1696 63.3956 62.0929C58.0722 56.7716 52.7484 51.4499 47.4263 46.1275C47.3036 46.0048 47.1812 45.8798 47.078 45.7414C46.2242 44.5995 46.9044 43.0072 48.3184 42.8429C48.5759 42.813 48.838 42.8151 49.0978 42.8148C52.7639 42.8136 56.4297 42.8138 60.0955 42.8138Z" fill="#E4E7EC"/>
</svg>
